<svg width="83" height="24" viewBox="0 0 83 24" fill="none" xmlns="http://www.w3.org/2000/svg">
<g clip-path="url(#clip0_154_2863)">
<path d="M57.5846 12.0251C57.5846 10.3542 57.2779 8.78881 56.6659 7.33023C56.0532 5.87164 55.2105 4.59735 54.1392 3.50592C53.0672 2.4152 51.8214 1.55826 50.4019 0.935102C48.9817 0.31194 47.4644 0 45.85 0C44.2356 0 42.6761 0.31194 41.2559 0.935102C39.8364 1.55826 38.5899 2.4152 37.5186 3.50592C36.4466 4.59735 35.6039 5.87164 34.9919 7.33094C34.3792 8.79025 34.0732 10.3406 34.0732 11.9842C34.0732 13.6278 34.3792 15.1854 34.9919 16.659C35.6039 18.1319 36.4459 19.4141 37.5186 20.5048C38.5899 21.5956 39.8364 22.4525 41.2559 23.0757C42.6754 23.6988 44.2068 23.9814 45.85 23.9254C47.4637 23.8681 48.905 23.5059 50.1719 22.8397C51.4387 22.1735 52.5593 21.3424 53.5335 20.3492L54.1807 23.9828H58.691C57.664 20.3162 57.5846 12.0251 57.5846 12.0251ZM45.7248 19.1796C41.8264 19.1796 38.6659 15.9577 38.6659 11.9828C38.6659 8.00789 41.8264 4.78666 45.7248 4.78666C49.6232 4.78666 52.7837 8.00861 52.7837 11.9828C52.7837 15.957 49.6232 19.1796 45.7248 19.1796Z" fill="#EE9613"/>
<path d="M77.334 15.744C76.008 18.1542 73.508 19.6508 70.8097 19.6508C68.9885 19.6508 67.2687 18.9896 65.9075 17.7777L73.169 13.8221L82.1539 8.91573L82.0519 8.57009C81.8809 7.9921 81.6671 7.42631 81.4153 6.88776C80.4741 4.87414 79.0032 3.1703 77.1602 1.95983C75.2673 0.716376 73.0712 0.0595093 70.8097 0.0595093C64.3347 0.0595093 59.0674 5.42918 59.0674 12.0301C59.0674 14.1929 59.64 16.3134 60.7233 18.1613C61.7475 19.9082 63.2014 21.3711 64.927 22.3915C66.7066 23.4435 68.7402 24 70.8097 24C75.0563 24 78.9849 21.6508 81.0614 17.868L81.2732 17.4822L77.5457 15.3596L77.334 15.744ZM70.8097 4.40802C72.9868 4.40802 75.0739 5.39977 76.4892 7.08282L63.6144 14.0968C63.4279 13.4256 63.3337 12.7322 63.3337 12.0301C63.3337 7.82789 66.6876 4.40874 70.8104 4.40874L70.8097 4.40802Z" fill="#FADEB6"/>
<path d="M3.85756 16.3564C5.28622 18.2316 6.91184 19.1696 8.73301 19.1696C9.78674 19.1696 10.6527 18.9645 11.3315 18.555C12.0103 18.1456 12.3493 17.531 12.3493 16.7114C12.2959 15.9835 11.8942 15.4371 11.1437 15.0728L5.97347 13.7892C4.38372 13.28 3.10701 12.4561 2.14261 11.318C1.17821 10.18 0.695661 8.92794 0.695661 7.56257C0.695661 5.28649 1.47646 3.46576 3.03948 2.1004C4.60319 0.734318 6.42014 0.0516357 8.49244 0.0516357C11.6712 0.0516357 14.2964 1.23557 16.3687 3.60201L12.725 6.57871C11.6712 5.41341 10.341 4.83041 8.73301 4.83041C7.66169 4.83041 6.83516 5.05845 6.25484 5.51309C5.67381 5.96845 5.384 6.51417 5.384 7.15167C5.384 8.06239 5.99105 8.78165 7.20587 9.30943L12.4028 10.5658C15.4922 11.7497 17.0377 13.7978 17.0377 16.7107C17.0377 18.6411 16.323 20.3299 14.8943 21.777C13.465 23.2248 11.4117 23.9484 8.7323 23.9484C5.08856 23.9484 2.17778 22.3098 -0.00143433 19.0319L3.85615 16.3557L3.85756 16.3564Z" fill="#FADEB6"/>
<path d="M34.5016 17.1588C33.1447 18.4984 31.5247 19.1696 29.6396 19.1696C27.7544 19.1696 26.0317 18.469 24.6565 17.0663C23.2813 15.6644 22.5933 13.9713 22.5933 11.9864C22.5933 10.0014 23.2806 8.33632 24.6565 6.93439C26.0317 5.53245 27.6925 4.83113 29.6396 4.83113C31.5866 4.83113 33.1349 5.49875 34.4897 6.83041C35.179 5.36178 36.154 4.05809 37.34 2.99319C35.1706 1.03263 32.6045 0.0516357 29.6396 0.0516357C26.389 0.0516357 23.6203 1.21693 21.3349 3.54751C19.0481 5.8781 17.9057 8.69129 17.9057 11.9871C17.9057 15.2829 19.0488 18.1233 21.3349 20.4532C23.6203 22.7838 26.389 23.9491 29.6396 23.9491C32.6136 23.9491 35.1868 22.9616 37.3597 20.9889C36.1716 19.9276 35.1938 18.626 34.5009 17.1588H34.5016Z" fill="#F6631E"/>
</g>
<defs>
<clipPath id="clip0_154_2863">
<rect width="82.1538" height="24" fill="white"/>
</clipPath>
</defs>
</svg>
